<svg xmlns="http://www.w3.org/2000/svg" width="756.73" height="489.718" viewBox="0 0 756.73 489.718">
  <g id="login" transform="translate(0 0.035)">
    <path id="Path_77" data-name="Path 77" d="M846.229,617.675h0a194.53,194.53,0,0,1-1.632-42.168l1.632-23.292h0c-8.994,17.9-6.962,41.452,0,65.46Z" transform="translate(-274.654 -227.722)" fill="#cacaca"/>
    <path id="Path_78" data-name="Path 78" d="M856.112,630.179h0a143.007,143.007,0,0,1-.785-25.1l.785-13.864h0C851.785,601.868,852.763,615.889,856.112,630.179Z" transform="translate(-277.524 -236.33)" fill="#cacaca"/>
    <path id="Path_79" data-name="Path 79" d="M877.955,662.555v7.793a2.35,2.35,0,0,1-2.338,2.338h-3.9a.777.777,0,0,0-.779.779v63.9A2.35,2.35,0,0,1,868.6,739.7H821.067a2.34,2.34,0,0,1-2.338-2.338v-63.9a.782.782,0,0,0-.779-.779h-4.676a2.34,2.34,0,0,1-2.338-2.338v-7.793a2.335,2.335,0,0,1,2.338-2.338h62.343a2.345,2.345,0,0,1,2.338,2.338Z" transform="translate(-268.191 -251.559)" fill="#f2f2f2"/>
    <rect id="Rectangle_61" data-name="Rectangle 61" width="52.212" height="2.338" transform="translate(550.608 422.763)" fill="#e6e6e6"/>
    <path id="Path_80" data-name="Path 80" d="M872.928,716.571c-17.471,7.23-35.133,7.31-52.992,0V700.1a83.221,83.221,0,0,1,52.992,0Z" transform="translate(-270.177 -259.406)" fill="#e6e6e6"/>
    <circle id="Ellipse_57" data-name="Ellipse 57" cx="28.363" cy="28.363" r="28.363" transform="translate(323.472 138.386)" fill="#2f2e41"/>
    <path id="Path_81" data-name="Path 81" d="M569.823,313.2a28.367,28.367,0,0,1,24.968,41.823,28.356,28.356,0,1,0-47.112-31.158A28.293,28.293,0,0,1,569.823,313.2Z" transform="translate(-210.087 -174.034)" fill="#2f2e41"/>
    <circle id="Ellipse_58" data-name="Ellipse 58" cx="83.315" cy="83.315" r="83.315" transform="translate(215.519 0.058)" fill="#2f2e41"/>
    <path id="Path_82" data-name="Path 82" d="M406.879,167.489a83.3,83.3,0,0,1,115.465-8.736c-.681-.648-1.355-1.3-2.063-1.93A83.316,83.316,0,1,0,409.57,281.359c.708.629,1.436,1.222,2.159,1.823a83.3,83.3,0,0,1-4.849-115.693Z" transform="translate(-173.433 -135.809)" fill="#2f2e41"/>
    <circle id="Ellipse_59" data-name="Ellipse 59" cx="53.661" cy="53.661" r="53.661" transform="translate(244.468 58.66)" fill="#ffb8b8"/>
    <path id="Path_83" data-name="Path 83" d="M486.4,367.505l-57.425,2.582s4.793,29.7-26.274,32.522-59.31-5.648-70.607,15.533-6.428,96.605-6.428,96.605S346.845,591,363.79,602.3s165.22-4.236,165.22-4.236l62.054-78.353-2.1-60.426c-1.1-31.554-29.907-55.245-60.935-49.406q-.914.172-1.841.37s-6.817-5.095-25.52-14.446C489.228,390.084,486.4,367.505,486.4,367.505Z" transform="translate(-160.855 -186.955)" fill="#cacaca"/>
    <path id="Path_84" data-name="Path 84" d="M372.26,409.671s13.648,24.764,8,60.067,18.051,109.969,18.051,109.969l16.946-4.236s-11.3-73.431-8.473-90.376,3.6-66.951-10.518-75.423S372.26,409.671,372.26,409.671Z" transform="translate(-171.37 -195.43)" fill="#2f2e41"/>
    <path id="Path_85" data-name="Path 85" d="M582,425.087l5.936,156.346,11.3,7.061S615.468,416.919,607,416.919h-17.24a7.77,7.77,0,0,0-7.77,7.77Q581.986,424.888,582,425.087Z" transform="translate(-217.659 -197.861)" fill="#2f2e41"/>
    <circle id="Ellipse_60" data-name="Ellipse 60" cx="7.061" cy="7.061" r="7.061" transform="translate(227.647 366.626)" fill="#6c63ff"/>
    <circle id="Ellipse_61" data-name="Ellipse 61" cx="7.061" cy="7.061" r="7.061" transform="translate(368.861 373.686)" fill="#6c63ff"/>
    <path id="Path_86" data-name="Path 86" d="M323.672,58.069V111.73H336.1l15.816-16.946L349.8,111.73h54.931l-3.389-16.946,6.778,16.946h8.755V58.069Z" transform="translate(-71.438 -12.824)" fill="#2f2e41"/>
    <ellipse id="Ellipse_62" data-name="Ellipse 62" cx="4.236" cy="7.767" rx="4.236" ry="7.767" transform="translate(239.525 93.258)" fill="#ffb8b8"/>
    <ellipse id="Ellipse_63" data-name="Ellipse 63" cx="4.236" cy="7.767" rx="4.236" ry="7.767" transform="translate(348.259 93.258)" fill="#ffb8b8"/>
    <path id="Path_87" data-name="Path 87" d="M613.139,740.543v4.73a10.4,10.4,0,0,1-.709,3.8,10.669,10.669,0,0,1-.756,1.559,10.472,10.472,0,0,1-9,5.112H254.682a10.472,10.472,0,0,1-9-5.112,10.667,10.667,0,0,1-.756-1.559,10.4,10.4,0,0,1-.709-3.8v-4.73a10.463,10.463,0,0,1,10.46-10.466h20.064v-2.205a.436.436,0,0,1,.435-.436h10.467a.436.436,0,0,1,.436.435v2.207h6.538v-2.205a.436.436,0,0,1,.435-.436H303.52a.436.436,0,0,1,.436.435v2.207H310.5v-2.205a.436.436,0,0,1,.435-.436H321.4a.436.436,0,0,1,.436.435v2.207h6.538v-2.205a.436.436,0,0,1,.435-.436h10.467a.436.436,0,0,1,.436.435v2.207h6.538v-2.205a.436.436,0,0,1,.435-.436h10.467a.436.436,0,0,1,.436.435v2.207h6.546v-2.205a.436.436,0,0,1,.435-.436h10.467a.436.436,0,0,1,.436.435v2.207h6.538v-2.205a.436.436,0,0,1,.435-.436h81.983a.436.436,0,0,1,.436.435v2.207h6.546v-2.205a.436.436,0,0,1,.435-.436H482.32a.441.441,0,0,1,.436.436v2.205h6.538v-2.205a.436.436,0,0,1,.435-.436H500.2a.436.436,0,0,1,.436.435v2.207h6.538v-2.205a.436.436,0,0,1,.435-.436h10.467a.436.436,0,0,1,.436.435v2.207h6.546v-2.205a.436.436,0,0,1,.435-.436h10.467a.434.434,0,0,1,.429.436v2.205h6.546v-2.205a.436.436,0,0,1,.435-.436h10.467a.436.436,0,0,1,.436.435v2.207h6.538v-2.205a.436.436,0,0,1,.435-.436h10.467a.436.436,0,0,1,.436.435v2.207h30.525a10.463,10.463,0,0,1,10.466,10.46Z" transform="translate(-143.11 -266.395)" fill="#3f3d56"/>
    <rect id="Rectangle_62" data-name="Rectangle 62" width="756.73" height="1.559" transform="translate(0 488.124)" fill="#3f3d56"/>
    <path id="Path_88" data-name="Path 88" d="M588.9,488.621H270.14a8.774,8.774,0,0,0-8.774,8.774V675a8.774,8.774,0,0,0,8.774,8.774H588.9A8.774,8.774,0,0,0,597.677,675V497.4a8.774,8.774,0,0,0-8.774-8.774Z" transform="translate(-146.895 -213.686)" fill="#3f3d56"/>
    <circle id="Ellipse_64" data-name="Ellipse 64" cx="19.482" cy="19.482" r="19.482" transform="translate(263.4 317.46)" fill="#6c63ff"/>
  </g>
</svg>
