<svg xmlns="http://www.w3.org/2000/svg" width="50" height="50" viewBox="0 0 50 50">
  <g id="time2" transform="translate(-4 -4)">
    <path id="Path_75" data-name="Path 75" d="M29,4A25,25,0,1,0,54,29,25,25,0,0,0,29,4Zm0,45.455A20.455,20.455,0,1,1,49.455,29,20.455,20.455,0,0,1,29,49.455Z" fill="#fff"/>
    <path id="Path_76" data-name="Path 76" d="M48.545,34.968V22.273a2.273,2.273,0,0,0-4.545,0V35.909c0,.005,0,.01,0,.015a2.225,2.225,0,0,0,.043.429c.014.07.039.133.059.2a2.27,2.27,0,0,0,.069.224,2.336,2.336,0,0,0,.118.224c.031.057.055.114.091.168a2.214,2.214,0,0,0,.285.348l6.427,6.427a2.273,2.273,0,1,0,3.215-3.214Z" transform="translate(-17.273 -6.909)" fill="#fff"/>
  </g>
</svg>
